<svg xmlns="http://www.w3.org/2000/svg" width="1024" height="500" viewBox="0 0 1024 500" role="img" aria-labelledby="title desc">
  <title id="title">AstroFace Google Play feature graphic</title>
  <desc id="desc">A presentation graphic for AstroFace showing an astronomical 24 hour Wear OS watch face and its main features.</desc>
  <defs>
    <radialGradient id="spaceGlow" cx="30%" cy="50%" r="72%">
      <stop offset="0%" stop-color="#1a1d28" />
      <stop offset="48%" stop-color="#07080c" />
      <stop offset="100%" stop-color="#000000" />
    </radialGradient>
    <radialGradient id="watchGlow" cx="48%" cy="42%" r="64%">
      <stop offset="0%" stop-color="#141720" />
      <stop offset="58%" stop-color="#050507" />
      <stop offset="100%" stop-color="#000000" />
    </radialGradient>
    <radialGradient id="moonGradient" cx="35%" cy="32%" r="66%">
      <stop offset="0%" stop-color="#fff8dc" />
      <stop offset="52%" stop-color="#d8d2bd" />
      <stop offset="100%" stop-color="#74747a" />
    </radialGradient>
  </defs>

  <rect width="1024" height="500" fill="url(#spaceGlow)" />

  <g fill="#ffffff" opacity="0.68">
    <circle cx="65" cy="74" r="1.8" />
    <circle cx="118" cy="414" r="1.4" />
    <circle cx="172" cy="103" r="1.2" />
    <circle cx="433" cy="58" r="1.5" />
    <circle cx="476" cy="428" r="1.8" />
    <circle cx="541" cy="95" r="1.2" />
    <circle cx="615" cy="390" r="1.4" />
    <circle cx="703" cy="69" r="1.6" />
    <circle cx="824" cy="429" r="1.3" />
    <circle cx="936" cy="92" r="1.6" />
    <circle cx="982" cy="318" r="1.1" />
  </g>

  <g transform="translate(258 250)">
    <circle r="207" fill="#000000" opacity="0.72" />
    <circle r="196" fill="url(#watchGlow)" stroke="#e53935" stroke-width="7" />
    <circle r="179" fill="none" stroke="#671719" stroke-width="2" />

    <circle r="168" fill="none" stroke="#182a6f" stroke-width="12" stroke-linecap="round"
      stroke-dasharray="174 882" transform="rotate(-90)" />
    <circle r="168" fill="none" stroke="#f4b844" stroke-width="12" stroke-linecap="round"
      stroke-dasharray="132 924" transform="rotate(31)" />
    <circle r="168" fill="none" stroke="#d7d7cf" stroke-width="8" stroke-linecap="round"
      stroke-dasharray="96 960" transform="rotate(150)" opacity="0.9" />

    <g stroke="#ffffff" stroke-width="3.5" stroke-linecap="round">
      <line x1="0" y1="-187" x2="0" y2="-166" transform="rotate(0)" />
      <line x1="0" y1="-187" x2="0" y2="-174" transform="rotate(15)" opacity="0.5" />
      <line x1="0" y1="-187" x2="0" y2="-174" transform="rotate(30)" opacity="0.5" />
      <line x1="0" y1="-187" x2="0" y2="-166" transform="rotate(45)" />
      <line x1="0" y1="-187" x2="0" y2="-174" transform="rotate(60)" opacity="0.5" />
      <line x1="0" y1="-187" x2="0" y2="-174" transform="rotate(75)" opacity="0.5" />
      <line x1="0" y1="-187" x2="0" y2="-166" transform="rotate(90)" />
      <line x1="0" y1="-187" x2="0" y2="-174" transform="rotate(105)" opacity="0.5" />
      <line x1="0" y1="-187" x2="0" y2="-174" transform="rotate(120)" opacity="0.5" />
      <line x1="0" y1="-187" x2="0" y2="-166" transform="rotate(135)" />
      <line x1="0" y1="-187" x2="0" y2="-174" transform="rotate(150)" opacity="0.5" />
      <line x1="0" y1="-187" x2="0" y2="-174" transform="rotate(165)" opacity="0.5" />
      <line x1="0" y1="-187" x2="0" y2="-166" transform="rotate(180)" />
      <line x1="0" y1="-187" x2="0" y2="-174" transform="rotate(195)" opacity="0.5" />
      <line x1="0" y1="-187" x2="0" y2="-174" transform="rotate(210)" opacity="0.5" />
      <line x1="0" y1="-187" x2="0" y2="-166" transform="rotate(225)" />
      <line x1="0" y1="-187" x2="0" y2="-174" transform="rotate(240)" opacity="0.5" />
      <line x1="0" y1="-187" x2="0" y2="-174" transform="rotate(255)" opacity="0.5" />
      <line x1="0" y1="-187" x2="0" y2="-166" transform="rotate(270)" />
      <line x1="0" y1="-187" x2="0" y2="-174" transform="rotate(285)" opacity="0.5" />
      <line x1="0" y1="-187" x2="0" y2="-174" transform="rotate(300)" opacity="0.5" />
      <line x1="0" y1="-187" x2="0" y2="-166" transform="rotate(315)" />
      <line x1="0" y1="-187" x2="0" y2="-174" transform="rotate(330)" opacity="0.5" />
      <line x1="0" y1="-187" x2="0" y2="-174" transform="rotate(345)" opacity="0.5" />
    </g>

    <g font-family="Inter, Arial, sans-serif" font-weight="700" font-size="20" fill="#ffffff" opacity="0.92">
      <text x="0" y="-133" text-anchor="middle">00</text>
      <text x="139" y="7" text-anchor="middle">06</text>
      <text x="0" y="148" text-anchor="middle">12</text>
      <text x="-139" y="7" text-anchor="middle">18</text>
    </g>

    <circle r="113" fill="#050508" stroke="#ffffff" stroke-width="1.8" opacity="0.9" />
    <circle r="91" fill="none" stroke="#7d1518" stroke-width="1.8" opacity="0.75" />

    <g fill="none" stroke="#9da7b7" stroke-width="2.3" stroke-linecap="round" stroke-linejoin="round" opacity="0.72">
      <path d="M-67 12 L-38 -18 L-7 -6 L27 -39 L68 -26" />
      <path d="M-55 53 L-23 40 L9 62 L43 34 L82 50" />
      <path d="M-33 -65 L-5 -76 L27 -58 L59 -75" />
    </g>
    <g fill="#f4f7ff" opacity="0.92">
      <circle cx="-67" cy="12" r="2.6" />
      <circle cx="-38" cy="-18" r="3.3" />
      <circle cx="-7" cy="-6" r="2.6" />
      <circle cx="27" cy="-39" r="3.4" />
      <circle cx="68" cy="-26" r="2.7" />
      <circle cx="-55" cy="53" r="2.8" />
      <circle cx="-23" cy="40" r="2.6" />
      <circle cx="9" cy="62" r="3.2" />
      <circle cx="43" cy="34" r="2.6" />
      <circle cx="82" cy="50" r="2.6" />
      <circle cx="-33" cy="-65" r="2.6" />
      <circle cx="-5" cy="-76" r="2.6" />
      <circle cx="27" cy="-58" r="2.6" />
      <circle cx="59" cy="-75" r="2.6" />
    </g>

    <g>
      <circle cx="-82" cy="-94" r="20" fill="url(#moonGradient)" />
      <circle cx="-74" cy="-98" r="21" fill="#050508" />
      <circle cx="82" cy="-92" r="11" fill="#f6c351" />
      <circle cx="116" cy="8" r="8" fill="#d85b45" />
      <circle cx="-118" cy="37" r="9" fill="#78c7d7" />
      <circle cx="85" cy="95" r="10" fill="#f0d889" />
      <path d="M69 92 C81 86 98 86 110 92" fill="none" stroke="#f0d889" stroke-width="3.4" stroke-linecap="round" />
    </g>

    <g stroke-linecap="round">
      <line x1="0" y1="0" x2="0" y2="-126" stroke="#ffffff" stroke-width="11" />
      <line x1="0" y1="0" x2="91" y2="0" stroke="#ffffff" stroke-width="7.5" />
      <line x1="0" y1="0" x2="0" y2="-157" stroke="#e53935" stroke-width="3.6" />
    </g>
    <circle r="18" fill="#101118" stroke="#ffffff" stroke-width="4.5" />
    <circle r="7" fill="#e53935" />
  </g>

  <g font-family="Inter, Arial, sans-serif">
    <text x="535" y="168" fill="#ffffff" font-size="76" font-weight="800">AstroFace</text>
    <text x="539" y="215" fill="#e53935" font-size="30" font-weight="700">Cadran Wear OS astronomique</text>
    <text x="540" y="264" fill="#dfe3eb" font-size="26">Heure 24 h, Lune, planetes et constellations</text>

    <g font-size="22" font-weight="700">
      <rect x="540" y="305" width="106" height="42" rx="21" fill="#e53935" />
      <text x="593" y="333" text-anchor="middle" fill="#ffffff">24 h</text>

      <rect x="660" y="305" width="205" height="42" rx="21" fill="#10162a" stroke="#28427a" stroke-width="2" />
      <text x="762" y="333" text-anchor="middle" fill="#ffffff">Nuit astronomique</text>

      <rect x="540" y="365" width="178" height="42" rx="21" fill="#202020" stroke="#646464" stroke-width="2" />
      <text x="629" y="393" text-anchor="middle" fill="#ffffff">Phase lunaire</text>

      <rect x="734" y="365" width="169" height="42" rx="21" fill="#161111" stroke="#7d1518" stroke-width="2" />
      <text x="818" y="393" text-anchor="middle" fill="#ffffff">AOD lisible</text>
    </g>
  </g>
</svg>
