<svg xmlns="http://www.w3.org/2000/svg" width="512" height="512" viewBox="0 0 512 512" role="img" aria-labelledby="title desc">
  <title id="title">AstroFace app icon</title>
  <desc id="desc">A dark astronomical 24 hour watch face with red accents, moon phase, planets, constellations, and analog hands.</desc>
  <defs>
    <radialGradient id="backgroundGlow" cx="50%" cy="45%" r="62%">
      <stop offset="0%" stop-color="#15171f" />
      <stop offset="52%" stop-color="#08090d" />
      <stop offset="100%" stop-color="#000000" />
    </radialGradient>
    <radialGradient id="moonShade" cx="36%" cy="34%" r="66%">
      <stop offset="0%" stop-color="#fff8dc" />
      <stop offset="52%" stop-color="#d8d2bd" />
      <stop offset="100%" stop-color="#6f6f74" />
    </radialGradient>
    <linearGradient id="hourHandGradient" x1="256" y1="94" x2="256" y2="264" gradientUnits="userSpaceOnUse">
      <stop offset="0%" stop-color="#ffffff" />
      <stop offset="100%" stop-color="#aeb7c8" />
    </linearGradient>
  </defs>

  <rect width="512" height="512" rx="112" fill="#000000" />
  <circle cx="256" cy="256" r="238" fill="url(#backgroundGlow)" />

  <circle cx="256" cy="256" r="226" fill="none" stroke="#e53935" stroke-width="8" />
  <circle cx="256" cy="256" r="212" fill="none" stroke="#641416" stroke-width="2" opacity="0.9" />

  <circle cx="256" cy="256" r="204" fill="none" stroke="#182a6f" stroke-width="14" stroke-linecap="round"
    stroke-dasharray="210 1080" transform="rotate(-88 256 256)" />
  <circle cx="256" cy="256" r="204" fill="none" stroke="#f4b844" stroke-width="14" stroke-linecap="round"
    stroke-dasharray="156 1134" transform="rotate(33 256 256)" />
  <circle cx="256" cy="256" r="204" fill="none" stroke="#d7d7cf" stroke-width="9" stroke-linecap="round"
    stroke-dasharray="118 1172" transform="rotate(150 256 256)" opacity="0.9" />

  <g stroke="#ffffff" stroke-width="4" stroke-linecap="round" opacity="0.9">
    <line x1="256" y1="35" x2="256" y2="57" transform="rotate(0 256 256)" />
    <line x1="256" y1="35" x2="256" y2="48" transform="rotate(15 256 256)" opacity="0.55" />
    <line x1="256" y1="35" x2="256" y2="48" transform="rotate(30 256 256)" opacity="0.55" />
    <line x1="256" y1="35" x2="256" y2="57" transform="rotate(45 256 256)" />
    <line x1="256" y1="35" x2="256" y2="48" transform="rotate(60 256 256)" opacity="0.55" />
    <line x1="256" y1="35" x2="256" y2="48" transform="rotate(75 256 256)" opacity="0.55" />
    <line x1="256" y1="35" x2="256" y2="57" transform="rotate(90 256 256)" />
    <line x1="256" y1="35" x2="256" y2="48" transform="rotate(105 256 256)" opacity="0.55" />
    <line x1="256" y1="35" x2="256" y2="48" transform="rotate(120 256 256)" opacity="0.55" />
    <line x1="256" y1="35" x2="256" y2="57" transform="rotate(135 256 256)" />
    <line x1="256" y1="35" x2="256" y2="48" transform="rotate(150 256 256)" opacity="0.55" />
    <line x1="256" y1="35" x2="256" y2="48" transform="rotate(165 256 256)" opacity="0.55" />
    <line x1="256" y1="35" x2="256" y2="57" transform="rotate(180 256 256)" />
    <line x1="256" y1="35" x2="256" y2="48" transform="rotate(195 256 256)" opacity="0.55" />
    <line x1="256" y1="35" x2="256" y2="48" transform="rotate(210 256 256)" opacity="0.55" />
    <line x1="256" y1="35" x2="256" y2="57" transform="rotate(225 256 256)" />
    <line x1="256" y1="35" x2="256" y2="48" transform="rotate(240 256 256)" opacity="0.55" />
    <line x1="256" y1="35" x2="256" y2="48" transform="rotate(255 256 256)" opacity="0.55" />
    <line x1="256" y1="35" x2="256" y2="57" transform="rotate(270 256 256)" />
    <line x1="256" y1="35" x2="256" y2="48" transform="rotate(285 256 256)" opacity="0.55" />
    <line x1="256" y1="35" x2="256" y2="48" transform="rotate(300 256 256)" opacity="0.55" />
    <line x1="256" y1="35" x2="256" y2="57" transform="rotate(315 256 256)" />
    <line x1="256" y1="35" x2="256" y2="48" transform="rotate(330 256 256)" opacity="0.55" />
    <line x1="256" y1="35" x2="256" y2="48" transform="rotate(345 256 256)" opacity="0.55" />
  </g>

  <g font-family="Inter, Arial, sans-serif" font-weight="700" font-size="24" fill="#ffffff" opacity="0.9">
    <text x="256" y="90" text-anchor="middle">00</text>
    <text x="427" y="264" text-anchor="middle">06</text>
    <text x="256" y="437" text-anchor="middle">12</text>
    <text x="85" y="264" text-anchor="middle">18</text>
  </g>

  <circle cx="256" cy="256" r="141" fill="#050508" stroke="#ffffff" stroke-width="2" opacity="0.9" />
  <circle cx="256" cy="256" r="116" fill="none" stroke="#7d1518" stroke-width="2" opacity="0.72" />

  <g fill="none" stroke="#9da7b7" stroke-width="2.5" stroke-linecap="round" stroke-linejoin="round" opacity="0.72">
    <path d="M172 267 L207 231 L246 245 L285 205 L330 220" />
    <path d="M189 312 L226 296 L262 322 L302 291 L348 309" />
    <path d="M206 177 L242 164 L280 183 L318 162" />
  </g>
  <g fill="#f4f7ff" opacity="0.92">
    <circle cx="172" cy="267" r="3" />
    <circle cx="207" cy="231" r="4" />
    <circle cx="246" cy="245" r="3" />
    <circle cx="285" cy="205" r="4" />
    <circle cx="330" cy="220" r="3" />
    <circle cx="189" cy="312" r="3" />
    <circle cx="226" cy="296" r="3" />
    <circle cx="262" cy="322" r="4" />
    <circle cx="302" cy="291" r="3" />
    <circle cx="348" cy="309" r="3" />
    <circle cx="206" cy="177" r="3" />
    <circle cx="242" cy="164" r="3" />
    <circle cx="280" cy="183" r="3" />
    <circle cx="318" cy="162" r="3" />
  </g>

  <g>
    <circle cx="160" cy="142" r="24" fill="url(#moonShade)" />
    <circle cx="169" cy="137" r="25" fill="#050508" />
    <circle cx="363" cy="146" r="13" fill="#f6c351" />
    <circle cx="396" cy="257" r="10" fill="#d85b45" />
    <circle cx="115" cy="294" r="11" fill="#78c7d7" />
    <circle cx="355" cy="353" r="12" fill="#f0d889" />
    <path d="M333 350 C346 343 365 343 379 350" fill="none" stroke="#f0d889" stroke-width="4" stroke-linecap="round" />
  </g>

  <g stroke-linecap="round">
    <line x1="256" y1="256" x2="256" y2="106" stroke="url(#hourHandGradient)" stroke-width="13" />
    <line x1="256" y1="256" x2="364" y2="256" stroke="#ffffff" stroke-width="9" />
    <line x1="256" y1="256" x2="256" y2="70" stroke="#e53935" stroke-width="4" />
  </g>
  <circle cx="256" cy="256" r="21" fill="#101118" stroke="#ffffff" stroke-width="5" />
  <circle cx="256" cy="256" r="8" fill="#e53935" />
</svg>
